<?xml version="1.0"?>
<svg xmlns="http://www.w3.org/2000/svg" width="378.6694091796875px" height="128.7999786376953px" viewBox="60.66529541015626 10.600010681152355 378.6694091796875 128.7999786376953" style=";background-color:transparent;" preserveAspectRatio="xMidYMid">
  <defs>
    <filter id="editing-extrusion" x="-100%" y="-100%" width="300%" height="300%">
      <feFlood result="color1" flood-color="#ffffff"/>
      <feConvolveMatrix order="8,8" divisor="1" kernelMatrix="1 0 0 0 0 0 0 0 0 1 0 0 0 0 0 0 0 0 1 0 0 0 0 0 0 0 0 1 0 0 0 0 0 0 0 0 1 0 0 0 0 0 0 0 0 1 0 0 0 0 0 0 0 0 1 0 0 0 0 0 0 0 0 1" in="SourceAlpha" result="extrude"/>
      <feComposite in="color1" in2="extrude" result="comp-extrude" operator="in"/>
      <feOffset dx="4" dy="4" in="comp-extrude" result="offset-extrude"/>
      <feMerge>
        <feMergeNode in="offset-extrude"/>
        <feMergeNode in="SourceGraphic"/>
      </feMerge>
    </filter>
  </defs>
  <g filter="url(#editing-extrusion)">
    <g transform="translate(119.3639919757843, 102.10499382019043)">
      <path d="M18.11 2.94L18.11 2.94L18.11 2.94Q18.11 1.15 25.47-10.94L25.47-10.94L25.47-10.94Q20.22-10.94 18.50-10.50L18.50-10.50L18.50-10.50Q15.62-9.79 14.21-7.62L14.21-7.62L14.21-7.62Q13.70-6.91 13.34-6.85L13.34-6.85L13.34-6.85Q12.99-6.78 12.99-7.14L12.99-7.14L12.99-7.14Q12.99-7.49 13.25-7.74L13.25-7.74L13.25-7.74Q15.68-11.01 18.05-12.22L18.05-12.22L18.05-12.22Q20.42-13.44 25.54-13.44L25.54-13.44L25.54-13.44Q26.30-13.44 27.07-13.44L27.07-13.44L27.07-13.44Q30.98-19.39 38.02-31.10L38.02-31.10L38.02-31.10Q40.64-36.03 40.64-39.10L40.64-39.10L40.64-39.10Q40.64-44.03 34.62-44.10L34.62-44.10L34.62-44.10Q34.24-44.10 33.92-44.10L33.92-44.10L33.92-44.10Q25.73-44.10 19.01-40L19.01-40L19.01-40Q12.29-35.90 8.38-29.82L8.38-29.82L8.38-29.82Q4.48-23.74 4.48-18.88L4.48-18.88L4.48-18.88Q4.48-12.93 10.05-12.93L10.05-12.93L10.05-12.93Q14.46-12.93 17.60-16.83L17.60-16.83L17.60-16.83Q20.74-20.74 20.74-24.26L20.74-24.26L20.74-24.26Q20.74-26.24 19.71-27.52L19.71-27.52L19.71-27.52Q19.58-27.65 19.58-27.84L19.58-27.84L19.58-27.84Q19.58-28.29 20.10-28.29L20.10-28.29L20.10-28.29Q20.35-28.29 20.48-28.10L20.48-28.10L20.48-28.10Q21.76-26.43 21.76-24.13L21.76-24.13L21.76-24.13Q21.76-20.22 18.56-16.16L18.56-16.16L18.56-16.16Q15.36-12.10 11.84-11.65L11.84-11.65L11.84-11.65Q10.75-11.46 9.73-11.46L9.73-11.46L9.73-11.46Q5.63-11.46 3.39-14.08L3.39-14.08L3.39-14.08Q1.22-16.45 1.22-20.48L1.22-20.48L1.22-20.48Q1.22-22.14 1.60-23.87L1.60-23.87L1.60-23.87Q3.52-32.51 12.70-38.98L12.70-38.98L12.70-38.98Q21.89-45.44 33.34-45.44L33.34-45.44L33.34-45.44Q37.76-45.44 40.93-43.55L40.93-43.55L40.93-43.55Q44.10-41.66 44.10-38.27L44.10-38.27L44.10-38.27Q44.10-34.88 41.73-31.10L41.73-31.10L30.14-13.31L30.14-13.31Q32.19-13.25 37.47-12.70L37.47-12.70L37.47-12.70Q42.75-12.16 45.41-12.16L45.41-12.16L45.41-12.16Q48.06-12.16 48.96-12.22L48.96-12.22L51.39-16.26L51.39-16.26Q57.60-26.69 65.76-35.74L65.76-35.74L65.76-35.74Q73.92-44.80 80-46.98L80-46.98L80-46.98Q80.19-47.04 80.38-47.04L80.38-47.04L80.38-47.04Q80.83-47.04 80.83-46.53L80.83-46.53L80.83-46.53Q80.83-46.34 80.64-46.21L80.64-46.21L80.64-46.21Q76.54-43.90 68.90-35.04L68.90-35.04L68.90-35.04Q61.25-26.18 55.68-16.83L55.68-16.83L53.18-12.61L53.18-12.61Q56.13-12.99 57.41-14.08L57.41-14.08L57.41-14.08Q57.66-14.27 57.86-13.86L57.86-13.86L57.86-13.86Q58.05-13.44 57.79-13.25L57.79-13.25L57.79-13.25Q55.87-11.78 52.35-11.14L52.35-11.14L52.35-11.14Q47.87-2.82 47.87 0.58L47.87 0.58L47.87 0.58Q47.87 2.75 49.73 2.75L49.73 2.75L49.73 2.75Q51.01 2.75 52.70 1.89L52.70 1.89L52.70 1.89Q54.40 1.02 54.98 0.42L54.98 0.42L54.98 0.42Q55.55-0.19 55.68-0.19L55.68-0.19L55.68-0.19Q55.81-0.19 55.74 0.22L55.74 0.22L55.74 0.22Q55.68 0.64 55.49 0.90L55.49 0.90L55.49 0.90Q54.40 1.92 52.22 3.07L52.22 3.07L52.22 3.07Q50.05 4.22 48.70 4.22L48.70 4.22L48.70 4.22Q47.36 4.22 46.72 3.78L46.72 3.78L46.72 3.78Q44.67 2.43 44.67-0.90L44.67-0.90L44.67-0.90Q44.67-4.22 48.06-10.62L48.06-10.62L48.06-10.62Q45.70-10.43 43.65-10.43L43.65-10.43L43.65-10.43Q42.94-10.43 28.61-10.88L28.61-10.88L28.61-10.88Q24.06-3.71 21.31 2.18L21.31 2.18L21.31 2.18Q20.48 3.90 19.30 3.90L19.30 3.90L19.30 3.90Q18.11 3.90 18.11 2.94ZM64.13 0.83L64.13 0.83L64.13 0.83Q63.42 0.83 62.85 0.64L62.85 0.64L62.85 0.64Q58.75-0.51 58.75-3.97L58.75-3.97L58.75-3.97Q58.75-8.45 64.38-14.34L64.38-14.34L64.38-14.34Q70.02-20.22 74.50-20.22L74.50-20.22L74.50-20.22Q75.97-20.22 76.90-19.42L76.90-19.42L76.90-19.42Q77.82-18.62 77.82-17.47L77.82-17.47L77.82-17.47Q77.82-13.89 72.42-10.62L72.42-10.62L72.42-10.62Q67.01-7.36 63.62-7.36L63.62-7.36L63.62-7.36Q63.10-7.36 62.72-7.49L62.72-7.49L62.72-7.49Q61.76-5.76 61.76-3.84L61.76-3.84L61.76-3.84Q61.76-0.51 64.93-0.51L64.93-0.51L64.93-0.51Q68.10-0.51 73.15-4.80L73.15-4.80L73.15-4.80Q77.06-7.94 79.81-11.46L79.81-11.46L79.81-11.46Q80.38-12.22 80.80-12.22L80.80-12.22L80.80-12.22Q81.22-12.22 81.22-11.84L81.22-11.84L81.22-11.84Q81.22-11.46 80.70-10.75L80.70-10.75L80.70-10.75Q77.25-6.21 72.38-2.69L72.38-2.69L72.38-2.69Q67.52 0.83 64.13 0.83ZM76.22-17.60L76.22-17.60L76.22-17.60Q76.22-18.37 74.59-18.37L74.59-18.37L74.59-18.37Q72.96-18.37 69.95-15.87L69.95-15.87L69.95-15.87Q65.92-12.54 63.68-8.90L63.68-8.90L63.68-8.90Q64.06-8.77 64.51-8.77L64.51-8.77L64.51-8.77Q66.94-8.77 71.01-11.36L71.01-11.36L71.01-11.36Q75.07-13.95 76.10-17.02L76.10-17.02L76.10-17.02Q76.22-17.34 76.22-17.60ZM79.81-3.20L79.81-3.20L79.81-3.20Q79.81-1.28 81.92-1.28L81.92-1.28L81.92-1.28Q84.03-1.28 87.36-3.52L87.36-3.52L87.36-3.52Q90.69-5.76 93.82-9.60L93.82-9.60L93.82-9.60Q94.59-10.62 95.04-10.62L95.04-10.62L95.04-10.62Q95.49-10.62 95.49-10.24L95.49-10.24L95.49-10.24Q95.49-9.86 92.86-6.91L92.86-6.91L92.86-6.91Q86.46 0.13 82.18 0.13L82.18 0.13L82.18 0.13Q80.06 0.13 78.59-0.86L78.59-0.86L78.59-0.86Q77.12-1.86 77.12-3.94L77.12-3.94L77.12-3.94Q77.12-6.02 78.21-8.77L78.21-8.77L78.21-8.77Q80.06-13.12 84.16-19.71L84.16-19.71L84.16-19.71Q91.65-31.87 94.78-31.87L94.78-31.87L94.78-31.87Q95.42-31.87 96.10-31.39L96.10-31.39L96.10-31.39Q96.77-30.91 96.83-30.34L96.83-30.34L96.83-30.34Q95.36-28.35 91.17-22.72L91.17-22.72L91.17-22.72Q86.98-17.09 85.38-14.62L85.38-14.62L85.38-14.62Q83.78-12.16 82.98-10.94L82.98-10.94L82.98-10.94Q82.18-9.73 81.79-9.06L81.79-9.06L81.79-9.06Q81.41-8.38 80.90-7.30L80.90-7.30L80.90-7.30Q79.81-5.12 79.81-3.20ZM95.36-3.20L95.36-3.20L95.36-3.20Q95.36-1.28 97.47-1.28L97.47-1.28L97.47-1.28Q99.58-1.28 102.91-3.52L102.91-3.52L102.91-3.52Q106.24-5.76 109.38-9.60L109.38-9.60L109.38-9.60Q110.14-10.62 110.59-10.62L110.59-10.62L110.59-10.62Q111.04-10.62 111.04-10.24L111.04-10.24L111.04-10.24Q111.04-9.86 108.42-6.91L108.42-6.91L108.42-6.91Q102.02 0.13 97.73 0.13L97.73 0.13L97.73 0.13Q95.62 0.13 94.14-0.86L94.14-0.86L94.14-0.86Q92.67-1.86 92.67-3.94L92.67-3.94L92.67-3.94Q92.67-6.02 93.76-8.77L93.76-8.77L93.76-8.77Q95.62-13.12 99.71-19.71L99.71-19.71L99.71-19.71Q107.20-31.87 110.34-31.87L110.34-31.87L110.34-31.87Q110.98-31.87 111.65-31.39L111.65-31.39L111.65-31.39Q112.32-30.91 112.38-30.34L112.38-30.34L112.38-30.34Q110.91-28.35 106.72-22.72L106.72-22.72L106.72-22.72Q102.53-17.09 100.93-14.62L100.93-14.62L100.93-14.62Q99.33-12.16 98.53-10.94L98.53-10.94L98.53-10.94Q97.73-9.73 97.34-9.06L97.34-9.06L97.34-9.06Q96.96-8.38 96.45-7.30L96.45-7.30L96.45-7.30Q95.36-5.12 95.36-3.20ZM125.12-13.57L125.12-13.57L125.12-13.57Q125.12-11.33 120.83-6.08L120.83-6.08L120.83-6.08Q115.78 0.13 112.19 0.13L112.19 0.13L111.17 0.13L111.17 0.13Q109.50 0.13 108.54-1.60L108.54-1.60L108.54-1.60Q107.78-2.82 107.78-4.29L107.78-4.29L107.78-4.29Q107.78-8.13 113.38-15.07L113.38-15.07L113.38-15.07Q118.98-22.02 122.43-22.02L122.43-22.02L122.43-22.02Q125.70-22.02 125.70-18.56L125.70-18.56L125.70-18.56Q125.70-17.66 125.38-16.26L125.38-16.26L125.38-16.26Q125.44-16.06 126.59-16.06L126.59-16.06L126.59-16.06Q127.74-16.06 130.11-17.28L130.11-17.28L130.11-17.28Q130.05-16.19 125.06-14.14L125.06-14.14L125.06-14.14Q125.12-13.89 125.12-13.57ZM120.96-16.90L120.96-16.90L120.96-16.90Q118.78-16.90 114.78-11.78L114.78-11.78L114.78-11.78Q110.78-6.66 110.78-4.22L110.78-4.22L110.78-4.22Q110.78-1.79 112.32-1.79L112.32-1.79L112.32-1.79Q115.07-1.79 119.30-6.78L119.30-6.78L119.30-6.78Q123.52-11.78 123.52-13.95L123.52-13.95L123.52-13.95Q122.50-14.53 120.96-16.90ZM133.12-16.64L133.12-16.64L139.33-16.58L139.33-16.58Q143.04-16.58 144.64-16.77L144.64-16.77L144.64-16.77Q144.70-16.70 144.70-16.58L144.70-16.58L144.70-16.58Q144.70-15.62 139.65-14.72L139.65-14.72L139.65-14.72Q136.90-14.34 134.50-13.92L134.50-13.92L134.50-13.92Q132.10-13.50 131.42-13.50L131.42-13.50L131.42-13.50Q130.75-13.50 129.18-13.79L129.18-13.79L129.18-13.79Q127.62-14.08 127.62-15.04L127.62-15.04L127.62-15.04Q127.62-15.68 128.16-16.13L128.16-16.13L128.16-16.13Q128.70-16.58 129.09-16.58L129.09-16.58L129.09-16.58Q129.47-16.58 129.86-16.64L129.86-16.64L131.52-16.64L131.52-16.64Q132.22-16.64 133.12-16.64ZM182.02-17.28L182.02-17.28L182.02-17.28Q178.82-17.28 176.06-17.79L176.06-17.79L176.06-17.79Q176.96-14.98 179.84-5.06L179.84-5.06L179.84-5.06Q180.74-2.18 182.66 0.77L182.66 0.77L182.66 0.77Q185.28 4.54 187.52 4.54L187.52 4.54L187.52 4.54Q190.21 4.54 192-0.90L192-0.90L192-0.90Q192.32-2.18 192.67-2.18L192.67-2.18L192.67-2.18Q193.02-2.18 193.18-1.44L193.18-1.44L193.18-1.44Q193.34-0.70 193.34-0.45L193.34-0.45L193.34-0.45Q193.34 1.15 191.55 3.65L191.55 3.65L191.55 3.65Q189.18 7.17 186.37 7.17L186.37 7.17L186.37 7.17Q183.55 7.17 181.18 4.35L181.18 4.35L181.18 4.35Q178.82 1.54 176.54-5.92L176.54-5.92L176.54-5.92Q174.27-13.38 174.27-15.42L174.27-15.42L174.27-15.42Q174.27-15.74 174.34-15.94L174.34-15.94L174.34-15.94Q166.66-5.76 163.33-2.50L163.33-2.50L163.33-2.50Q155.90 4.74 148.16 4.74L148.16 4.74L148.16 4.74Q142.72 4.74 142.72 0.64L142.72 0.64L142.72 0.64Q142.72-1.41 144.00-3.87L144.00-3.87L144.00-3.87Q145.28-6.34 147.14-8.19L147.14-8.19L147.14-8.19Q148.99-10.05 150.40-10.05L150.40-10.05L150.40-10.05Q150.66-10.05 150.66-9.92L150.66-9.92L150.66-9.92Q150.66-9.60 149.06-8.32L149.06-8.32L149.06-8.32Q147.46-7.04 145.98-4.70L145.98-4.70L145.98-4.70Q144.51-2.37 144.51-0.45L144.51-0.45L144.51-0.45Q144.51 2.94 149.06 2.94L149.06 2.94L149.06 2.94Q157.57 2.94 172.48-17.02L172.48-17.02L172.48-17.02Q173.31-18.11 173.89-18.56L173.89-18.56L172.86-18.94L172.86-18.94Q172.03-18.62 171.52-18.62L171.52-18.62L171.52-18.62Q170.18-18.62 170.18-19.71L170.18-19.71L170.18-19.71Q170.18-21.18 172.16-21.63L172.16-21.63L172.16-21.63Q172.42-21.70 172.61-21.70L172.61-21.70L172.61-21.70Q173.76-21.70 175.30-20.54L175.30-20.54L175.30-20.54Q180.93-26.82 181.06-26.94L181.06-26.94L181.06-26.94Q185.73-31.74 187.36-31.74L187.36-31.74L187.36-31.74Q188.99-31.74 188.99-30.34L188.99-30.34L188.99-30.34Q188.99-29.70 188.70-29.12L188.70-29.12L188.70-29.12Q188.42-28.54 188.03-28.54L188.03-28.54L188.03-28.54Q187.65-28.42 187.65-28.93L187.65-28.93L187.65-28.93Q187.65-29.18 188.03-29.70L188.03-29.70L188.03-29.70Q188.10-30.59 187.46-30.59L187.46-30.59L187.46-30.59Q185.41-30.59 177.54-19.71L177.54-19.71L177.54-19.71Q179.46-19.58 180.74-19.58L180.74-19.58L180.74-19.58Q195.58-19.58 199.30-27.26L199.30-27.26L199.30-27.26Q200.06-28.93 200.06-30.34L200.06-30.34L200.06-30.34Q200.06-33.15 197.50-35.20L197.50-35.20L197.50-35.20Q193.41-38.53 184.19-38.53L184.19-38.53L184.19-38.53Q174.98-38.53 165.38-33.86L165.38-33.86L165.38-33.86Q153.73-28.16 153.73-20.48L153.73-20.48L153.73-20.48Q153.73-17.98 156.86-17.98L156.86-17.98L156.86-17.98Q160.00-17.98 163.52-20.29L163.52-20.29L163.52-20.29Q167.04-22.59 168.26-24.83L168.26-24.83L168.26-24.83Q168.70-25.66 169.12-25.66L169.12-25.66L169.12-25.66Q169.54-25.66 169.34-25.15L169.34-25.15L169.34-25.15Q168.13-21.57 163.94-19.04L163.94-19.04L163.94-19.04Q159.74-16.51 155.20-16.51L155.20-16.51L155.20-16.51Q150.66-16.51 150.66-19.39L150.66-19.39L150.66-19.39Q150.66-19.58 150.66-19.84L150.66-19.84L150.66-19.84Q151.62-28.22 160.93-34.08L160.93-34.08L160.93-34.08Q170.24-39.94 183.36-39.94L183.36-39.94L183.36-39.94Q195.58-39.94 200.70-35.71L200.70-35.71L200.70-35.71Q203.78-33.15 203.78-29.70L203.78-29.70L203.78-29.70Q203.78-28.22 203.07-26.50L203.07-26.50L203.07-26.50Q201.09-21.82 194.94-19.55L194.94-19.55L194.94-19.55Q188.80-17.28 182.02-17.28ZM214.78-19.14L214.78-19.14L215.68-19.33L215.68-19.33Q216.38-19.33 217.02-18.75L217.02-18.75L217.02-18.75Q217.66-18.18 217.66-17.86L217.66-17.86L217.66-17.86Q217.66-17.54 213.70-11.68L213.70-11.68L213.70-11.68Q209.73-5.82 209.73-3.52L209.73-3.52L209.73-3.52Q209.73-3.33 209.79-3.14L209.79-3.14L209.79-3.14Q210.11-1.66 211.20-1.66L211.20-1.66L211.20-1.66Q214.53-1.66 223.36-12.67L223.36-12.67L223.36-12.67Q223.55-12.93 223.81-12.93L223.81-12.93L223.81-12.93Q224.06-12.93 224.06-12.45L224.06-12.45L224.06-12.45Q224.06-11.97 223.49-11.20L223.49-11.20L223.49-11.20Q215.30-0.26 211.01-0.26L211.01-0.26L211.01-0.26Q210.43-0.26 209.92-0.45L209.92-0.45L209.92-0.45Q207.10-1.54 207.10-4.67L207.10-4.67L207.10-4.67Q207.10-5.76 207.36-6.85L207.36-6.85L203.39-3.01L203.39-3.01Q199.62 0.32 197.92 0.32L197.92 0.32L197.92 0.32Q196.22 0.32 194.69-0.77L194.69-0.77L194.69-0.77Q192.96-2.05 192.96-4.16L192.96-4.16L192.96-4.16Q192.96-8.83 199.49-15.33L199.49-15.33L199.49-15.33Q206.02-21.82 211.46-21.82L211.46-21.82L211.46-21.82Q213.57-21.82 214.27-20.35L214.27-20.35L214.27-20.35Q214.46-19.84 214.59-19.49L214.59-19.49L214.59-19.49Q214.72-19.14 214.78-19.14ZM195.65-3.39L195.65-3.39L195.65-3.39Q195.65-1.09 197.25-1.09L197.25-1.09L197.25-1.09Q200.96-1.09 207.36-9.22L207.36-9.22L214.14-18.56L214.14-18.56Q213.63-19.46 212.48-19.46L212.48-19.46L212.48-19.46Q208.58-19.46 202.11-13.41L202.11-13.41L202.11-13.41Q195.65-7.36 195.65-3.39ZM250.50-0.77L250.50-0.77L250.50-0.77Q246.14-0.77 246.14-4.80L246.14-4.80L246.14-4.80Q246.14-7.10 248.19-11.10L248.19-11.10L248.19-11.10Q250.24-15.10 252.48-17.86L252.48-17.86L252.48-17.86Q248.51-15.94 243.33-10.91L243.33-10.91L243.33-10.91Q238.14-5.89 236.10-0.38L236.10-0.38L236.10-0.38Q235.78 0.13 235.01 0.13L235.01 0.13L235.01 0.13Q233.47 0.13 233.47-1.60L233.47-1.60L233.47-1.60Q234.11-5.12 236.35-9.66L236.35-9.66L236.35-9.66Q237.06-11.14 240.51-18.24L240.51-18.24L240.51-18.24Q235.52-14.98 232.03-11.23L232.03-11.23L232.03-11.23Q228.54-7.49 225.57-3.71L225.57-3.71L225.57-3.71Q222.59 0.06 222.21 0.06L222.21 0.06L222.21 0.06Q221.38 0.06 220.77-0.70L220.77-0.70L220.77-0.70Q220.16-1.47 220.16-2.24L220.16-2.24L220.16-2.24Q220.16-3.39 223.49-10.69L223.49-10.69L219.65-6.66L219.65-6.66Q218.24-5.25 217.89-5.25L217.89-5.25L217.89-5.25Q217.54-5.25 217.54-5.66L217.54-5.66L217.54-5.66Q217.54-6.08 218.05-6.59L218.05-6.59L218.05-6.59Q220.42-8.96 222.27-11.33L222.27-11.33L222.27-11.33Q224.13-13.70 228.42-19.78L228.42-19.78L228.42-19.78Q229.12-20.74 230.40-20.74L230.40-20.74L230.40-20.74Q231.68-20.74 231.68-19.52L231.68-19.52L231.68-19.52Q231.68-19.07 228.29-13.28L228.29-13.28L228.29-13.28Q224.90-7.49 224.51-6.02L224.51-6.02L224.51-6.02Q227.14-8.90 232.38-13.76L232.38-13.76L232.38-13.76Q240.26-21.06 242.75-21.06L242.75-21.06L242.75-21.06Q243.52-21.06 244.16-20.61L244.16-20.61L244.16-20.61Q244.80-20.16 244.80-19.62L244.80-19.62L244.80-19.62Q244.80-19.07 242.30-14.78L242.30-14.78L242.30-14.78Q239.87-10.37 239.62-9.54L239.62-9.54L239.62-9.54Q246.72-15.49 246.72-15.55L246.72-15.55L246.72-15.55Q252.74-20.22 255.36-20.22L255.36-20.22L255.36-20.22Q256.13-20.22 256.80-19.74L256.80-19.74L256.80-19.74Q257.47-19.26 257.47-18.62L257.47-18.62L257.47-18.62Q257.47-18.50 253.31-13.22L253.31-13.22L253.31-13.22Q249.15-7.94 248.64-4.54L248.64-4.54L248.64-4.54Q248.51-3.39 249.09-2.82L249.09-2.82L249.09-2.82Q249.66-2.24 251.17-2.24L251.17-2.24L251.17-2.24Q252.67-2.24 255.58-4.32L255.58-4.32L255.58-4.32Q258.50-6.40 261.50-9.92L261.50-9.92L261.50-9.92Q262.66-11.20 263.07-11.20L263.07-11.20L263.07-11.20Q263.49-11.20 263.49-10.88L263.49-10.88L263.49-10.88Q263.49-10.43 262.91-9.86L262.91-9.86L262.91-9.86Q259.78-6.08 256.16-3.42L256.16-3.42L256.16-3.42Q252.54-0.77 250.50-0.77Z" fill="#0a0a0a"/>
    </g>
  </g>
  <style>text {
  font-size: 64px;
  font-family: Arial Black;
  dominant-baseline: central;
  text-anchor: middle;
}</style>
</svg>
